<svg xmlns="http://www.w3.org/2000/svg" version="1.1" xmlns:xlink="http://www.w3.org/1999/xlink" xmlns:svgjs="http://svgjs.dev/svgjs" width="2000" height="1250" viewBox="0 0 2000 1250"><g transform="matrix(1,0,0,1,0,0)"><svg viewBox="0 0 512 320" data-background-color="#ffffff" preserveAspectRatio="xMidYMid meet" height="1250" width="2000" xmlns="http://www.w3.org/2000/svg" xmlns:xlink="http://www.w3.org/1999/xlink"><g id="tight-bounds" transform="matrix(1,0,0,1,0,0)"><svg viewBox="0 0 512 320" height="320" width="512"><g><svg></svg></g><g><svg viewBox="0 0 512 320" height="320" width="512"><g><path xmlns="http://www.w3.org/2000/svg" d="M96 320l0-320 320 0 0 320z" fill="#f7d65a" fill-rule="nonzero" stroke="none" stroke-width="1" stroke-linecap="butt" stroke-linejoin="miter" stroke-miterlimit="10" stroke-dasharray="" stroke-dashoffset="0" font-family="none" font-weight="none" font-size="none" text-anchor="none" style="mix-blend-mode: normal" data-fill-palette-color="tertiary"></path></g><g transform="matrix(1,0,0,1,140.8,82.79733079122974)"><svg viewBox="0 0 230.4 154.40533841754052" height="154.40533841754052" width="230.4"><g><svg viewBox="0 0 230.4 154.40533841754052" height="154.40533841754052" width="230.4"><g><svg viewBox="0 0 230.4 154.40533841754052" height="154.40533841754052" width="230.4"><g><svg viewBox="0 0 230.4 154.40533841754052" height="154.40533841754052" width="230.4"><g id="textblocktransform"><svg viewBox="0 0 230.4 154.40533841754052" height="154.40533841754052" width="230.4" id="textblock"><g><svg viewBox="0 0 230.4 154.40533841754052" height="154.40533841754052" width="230.4"><g transform="matrix(1,0,0,1,0,0)"><svg width="230.4" viewBox="2.950000047683716 -34.5 52.45000076293945 35.150001525878906" height="154.40533841754052" data-palette-color="#ffffff"><path d="M9.6-4.8L27-4.8 26.4 0 2.95 0 2.95-4.5 20.5-29.8 4.75-29.8 4.75-34.5 26.9-34.5 26.9-29.95 9.6-4.8ZM55.4-34.5L55.4-11.85Q55.4-6.4 52.27-2.88 49.15 0.65 42.8 0.65L42.8 0.65Q37.35 0.65 33-2.55L33-2.55 35.35-6.2Q37.3-4.95 39.05-4.42 40.8-3.9 42.6-3.9L42.6-3.9Q45.85-3.9 47.72-6 49.6-8.1 49.6-11.95L49.6-11.95 49.6-30.05 39.25-30.05 39.25-34.5 55.4-34.5Z" opacity="1" transform="matrix(1,0,0,1,0,0)" fill="#ffffff" class="undefined-text-0" data-fill-palette-color="quaternary" id="text-0"></path></svg></g></svg></g></svg></g></svg></g></svg></g></svg></g></svg></g></svg></g><defs></defs></svg><rect width="512" height="320" fill="none" stroke="none" visibility="hidden"></rect></g></svg></g></svg>